<svg width="318" height="80" viewBox="0 0 318 80" fill="none" xmlns="http://www.w3.org/2000/svg">
<path d="M135.572 64.4895L183.326 64.4895C186.072 64.4895 187.788 61.5172 186.415 59.1393L162.538 17.7832C161.165 15.4056 157.733 15.4056 156.36 17.7832L132.483 59.1393C132.151 59.7142 132 60.3234 132 60.9173C132 62.7804 133.49 64.4895 135.572 64.4895Z" fill="#42ADC5"/>
<path d="M6.0239 66V17.4586H35.3028V23.2723H12.8183V37.9118H32.7812V43.6555H12.8183V66H6.0239ZM72.8548 60.1162V66H43.6459V17.4586H50.4403V60.1162H72.8548ZM79.9682 17.4586H86.7626V66H79.9682V17.4586ZM111.668 16.9683C118.485 16.9683 123.715 18.2758 127.358 20.8908C131.047 23.4591 132.891 27.3116 132.891 32.4483C132.891 35.2501 132.378 37.655 131.35 39.663C130.37 41.6242 128.922 43.2353 127.007 44.4961C125.14 45.7102 122.851 46.5974 120.143 47.1578C117.435 47.7182 114.376 47.9984 110.967 47.9984H105.574V66H98.7792V18.159C100.694 17.6921 102.819 17.3885 105.153 17.2485C107.535 17.0617 109.706 16.9683 111.668 16.9683ZM112.228 22.9221C109.333 22.9221 107.115 22.9922 105.574 23.1323V42.1846H110.687C113.022 42.1846 115.123 42.0445 116.991 41.7643C118.859 41.4374 120.423 40.9238 121.684 40.2233C122.992 39.4762 123.996 38.4722 124.696 37.2114C125.396 35.9506 125.747 34.3395 125.747 32.3782C125.747 30.5104 125.373 28.9694 124.626 27.7553C123.926 26.5411 122.945 25.5838 121.684 24.8834C120.47 24.1362 119.046 23.6226 117.411 23.3424C115.777 23.0622 114.049 22.9221 112.228 22.9221Z" fill="#42ADC5"/>
<path d="M254.876 17.4586H261.671V66H254.876V17.4586ZM313.543 41.6943C313.543 45.897 312.889 49.5627 311.582 52.6914C310.274 55.7734 308.43 58.3417 306.048 60.3964C303.667 62.4043 300.818 63.922 297.503 64.9493C294.187 65.93 290.545 66.4203 286.576 66.4203C284.614 66.4203 282.443 66.3269 280.061 66.1401C277.727 66 275.602 65.6965 273.687 65.2295V18.159C275.602 17.6921 277.727 17.3885 280.061 17.2485C282.443 17.0617 284.614 16.9683 286.576 16.9683C290.545 16.9683 294.187 17.4819 297.503 18.5093C300.818 19.4899 303.667 21.0076 306.048 23.0622C308.43 25.0702 310.274 27.6385 311.582 30.7672C312.889 33.8492 313.543 37.4916 313.543 41.6943ZM287.136 60.4664C293.58 60.4664 298.39 58.832 301.565 55.5632C304.741 52.2478 306.328 47.6248 306.328 41.6943C306.328 35.7638 304.741 31.1641 301.565 27.8953C298.39 24.5799 293.58 22.9221 287.136 22.9221C285.221 22.9221 283.727 22.9455 282.653 22.9922C281.626 23.0389 280.902 23.0856 280.482 23.1323V60.2563C280.902 60.303 281.626 60.3497 282.653 60.3964C283.727 60.4431 285.221 60.4664 287.136 60.4664Z" fill="#D43042"/>
<path d="M238.66 16L191.526 16C188.816 16 187.122 18.9337 188.477 21.2805L212.044 62.1001C213.399 64.447 216.786 64.447 218.141 62.1001L241.708 21.2805C242.036 20.7134 242.186 20.1119 242.185 19.5258C242.185 17.6871 240.715 16 238.66 16" fill="url(#paint0_linear)"/>
<path d="M218.142 62.1001L225.37 49.5807L195.548 16C195.548 16 207.909 36.4941 216.656 63.4924C217.247 63.2016 217.772 62.7418 218.142 62.1001Z" fill="#B32D3B"/>
<path d="M228.237 60.8494L226.526 57.886C226.085 57.1216 226.347 56.1445 227.111 55.703L236.009 50.566C236.773 50.1245 237.751 50.3864 238.192 51.1509L239.903 54.1143L245 51.1714L224.694 16.0004L195.547 16.0004L223.14 63.7924L228.237 60.8494Z" fill="#292727"/>
<path d="M223.539 52.7116L217.467 42.1954C217.026 41.431 217.288 40.4536 218.052 40.0124L226.95 34.8753C227.714 34.4339 228.692 34.6958 229.133 35.4603L235.205 45.9765C235.646 46.7406 235.384 47.718 234.62 48.1595L225.722 53.2965C224.957 53.7377 223.98 53.4761 223.539 52.7116Z" fill="white"/>
<path d="M214.48 37.0213L208.409 26.5051C207.967 25.7406 208.229 24.7633 208.993 24.3221L217.891 19.185C218.656 18.7436 219.633 19.0055 220.074 19.7699L226.146 30.2862C226.587 31.0503 226.325 32.0277 225.561 32.4692L216.663 37.6062C215.899 38.0474 214.921 37.7857 214.48 37.0213Z" fill="white"/>
<path d="M239.541 45.6772L238.67 44.1693L237.163 45.0399L238.033 46.5478L239.541 45.6772ZM241.849 49.6754L240.979 48.1675L239.471 49.0381L240.341 50.546L241.849 49.6754ZM237.233 41.679L236.362 40.1711L234.854 41.0417L235.725 42.5496L237.233 41.679ZM234.924 37.6808L234.054 36.1729L232.546 37.0435L233.416 38.5514L234.924 37.6808ZM232.616 33.6826L231.746 32.1747L230.237 33.0453L231.108 34.5532L232.616 33.6826ZM230.308 29.6844L229.437 28.1765L227.929 29.0471L228.8 30.555L230.308 29.6844ZM227.999 25.6862L227.129 24.1783L225.621 25.0489L226.492 26.5571L227.999 25.6862ZM225.691 21.6883L224.82 20.1801L223.312 21.0507L224.183 22.5589L225.691 21.6883ZM221.875 18.5607L221.004 17.0525L222.512 16.1819L223.383 17.6901L221.875 18.5607Z" fill="white"/>
<path d="M201.99 19.3794L201.119 17.8716L199.611 18.7422L200.482 20.2501L201.99 19.3794ZM222.765 55.3629L221.894 53.8551L220.386 54.7257L221.257 56.2336L222.765 55.3629ZM225.073 59.3611L224.202 57.8533L222.695 58.7239L223.565 60.2317L225.073 59.3611ZM220.456 51.3647L219.586 49.8569L218.078 50.7275L218.948 52.2353L220.456 51.3647ZM218.148 47.3665L217.278 45.8587L215.769 46.7293L216.64 48.2371L218.148 47.3665ZM215.84 43.3683L214.969 41.8605L213.461 42.7311L214.332 44.239L215.84 43.3683ZM213.531 39.3701L212.661 37.8623L211.153 38.7329L212.024 40.2411L213.531 39.3701ZM211.223 35.3722L210.352 33.8641L208.845 34.7347L209.715 36.2429L211.223 35.3722ZM208.915 31.374L208.044 29.8659L206.536 30.7365L207.407 32.2447L208.915 31.374ZM206.606 27.3758L205.736 25.8677L204.228 26.7383L205.098 28.2465L206.606 27.3758ZM202.79 24.2483L201.919 22.7404L203.427 21.8698L204.298 23.3776L202.79 24.2483Z" fill="white"/>
<path d="M207.604 21.9159L216.502 16.7788C216.82 16.5948 217.046 16.3157 217.175 16.0002L202.344 16.0002L205.421 21.331C205.862 22.0954 206.84 22.3571 207.604 21.9159Z" fill="white"/>
<defs>
<linearGradient id="paint0_linear" x1="207.438" y1="6.26237" x2="234.531" y2="53.1883" gradientUnits="userSpaceOnUse">
<stop stop-color="#C62F3F"/>
<stop offset="0.15" stop-color="#C62F3F"/>
<stop offset="0.85" stop-color="#EE3248"/>
<stop offset="1" stop-color="#EE3248"/>
</linearGradient>
</defs>
</svg>
